<?xml version="1.0" standalone="no"?>
<!DOCTYPE svg PUBLIC "-//W3C//DTD SVG 20010904//EN"
 "http://www.w3.org/TR/2001/REC-SVG-20010904/DTD/svg10.dtd">
<svg version="1.0" xmlns="http://www.w3.org/2000/svg"
 width="700.000000pt" height="700.000000pt" viewBox="0 0 700.000000 700.000000"
 preserveAspectRatio="xMidYMid meet">
<metadata>
Created by potrace 1.11, written by Peter Selinger 2001-2013
</metadata>
<g transform="translate(0.000000,700.000000) scale(0.100000,-0.100000)"
fill="#000000" stroke="none">
<path d="M2411 5175 c-19 -44 -30 -56 -57 -65 -39 -13 -64 -44 -64 -77 0 -16
-6 -23 -18 -23 -20 0 -42 -38 -42 -70 0 -11 -7 -38 -16 -60 -16 -40 -16 -42 6
-65 12 -13 19 -28 16 -34 -11 -17 23 -71 50 -82 24 -8 25 -13 19 -52 -14 -94
-67 -167 -122 -167 -10 0 -31 -16 -46 -35 -16 -20 -37 -35 -49 -35 -35 0 -88
-47 -88 -79 0 -42 46 -81 96 -81 29 0 52 -9 82 -31 34 -25 47 -29 75 -24 21 4
47 1 69 -8 35 -15 36 -14 61 15 21 23 33 29 59 26 32 -3 33 -5 42 -62 7 -46 5
-65 -7 -91 -13 -28 -14 -40 -3 -81 9 -35 17 -49 29 -48 9 0 35 1 57 2 32 2 40
6 40 21 0 10 7 25 16 32 14 11 21 10 46 -4 37 -21 48 -21 48 -1 0 9 9 18 19
21 16 4 18 11 14 45 -5 30 -1 46 15 67 19 26 19 30 4 44 -14 15 -14 17 4 23
10 3 28 18 40 31 l21 25 44 -22 c24 -13 55 -31 70 -42 39 -29 73 -21 77 18 4
37 63 90 127 114 22 9 45 26 52 40 7 14 22 27 33 30 38 9 26 23 -40 50 -41 17
-66 33 -68 44 -2 10 10 35 27 56 17 22 31 45 31 53 0 8 9 22 20 32 28 26 25
44 -11 57 -28 10 -31 14 -26 43 3 18 0 38 -6 44 -12 12 -15 33 -21 136 l-3 60
-64 22 c-35 12 -73 20 -84 17 -12 -3 -55 13 -105 39 -67 35 -100 46 -155 51
-53 5 -76 13 -95 30 -14 13 -41 26 -61 30 -21 4 -48 15 -62 26 -14 11 -29 20
-33 20 -4 0 -15 7 -24 15 -14 13 -18 9 -39 -40z"/>
<path d="M1000 4776 c0 -30 -30 -46 -70 -40 -35 6 -41 3 -81 -37 -24 -24 -51
-44 -59 -45 -43 -2 -83 -20 -114 -50 -19 -19 -43 -34 -52 -34 -13 0 -90 -32
-113 -47 -2 -1 1 -8 6 -15 6 -7 18 -38 27 -69 21 -67 21 -67 69 -102 20 -15
37 -35 37 -43 0 -8 10 -14 25 -14 15 0 25 -6 25 -15 0 -22 41 -96 57 -102 8
-3 22 -22 32 -42 l19 -36 18 32 c36 62 87 69 99 14 4 -17 12 -31 19 -31 7 0
18 -12 24 -26 7 -14 16 -23 20 -20 5 3 32 -1 60 -8 47 -13 53 -12 73 5 12 10
27 19 34 19 18 0 45 -23 58 -49 18 -36 29 -35 60 8 17 23 49 48 78 62 44 20
54 21 83 11 19 -7 63 -15 97 -18 58 -5 68 -3 102 20 21 14 44 26 52 26 8 0 15
18 20 53 3 28 11 65 17 80 9 24 7 31 -13 53 -19 20 -25 40 -29 92 l-5 67 -40
3 c-22 2 -45 10 -52 19 -8 11 -23 14 -48 11 -31 -4 -40 0 -54 21 -9 14 -24 34
-33 43 -10 10 -18 30 -18 46 0 66 -5 70 -98 79 -48 4 -102 7 -119 5 -44 -4
-73 13 -73 43 0 30 -25 33 -40 5 -15 -28 -32 -25 -60 10 -28 32 -40 37 -40 16z"/>
<path d="M3801 4646 c-8 -9 -25 -16 -40 -17 -40 -1 -136 -35 -123 -43 7 -4 19
-23 27 -42 11 -28 12 -39 3 -54 -10 -16 -9 -24 9 -48 19 -26 21 -36 13 -83 -5
-30 -13 -74 -20 -98 -6 -24 -8 -57 -5 -72 5 -20 2 -30 -11 -37 -13 -7 -14 -13
-5 -30 6 -11 11 -31 11 -44 0 -20 9 -27 50 -42 48 -17 53 -17 95 -1 36 13 45
21 45 41 0 14 10 30 24 39 49 33 123 14 113 -27 -4 -14 -1 -18 11 -16 10 1 39
-10 66 -26 48 -28 49 -28 79 -11 23 13 41 16 83 11 31 -4 55 -2 59 4 3 5 14
10 25 10 28 0 35 45 10 70 -25 25 -25 33 -2 52 26 24 57 30 85 17 20 -9 30 -8
48 5 13 9 34 16 46 16 38 0 30 43 -17 90 -22 22 -44 40 -49 40 -20 0 -41 46
-41 86 0 46 -11 54 -83 54 -55 0 -103 24 -122 59 -25 49 -53 61 -128 59 -51
-2 -69 1 -79 13 -7 10 -34 19 -63 23 -27 3 -62 8 -76 11 -17 5 -30 1 -38 -9z
m209 -220 c0 -14 -5 -28 -11 -32 -8 -4 -3 -12 12 -20 29 -16 59 -18 59 -4 0
17 36 11 61 -9 20 -16 23 -28 24 -86 1 -63 0 -67 -24 -76 -19 -8 -35 -6 -62 6
-33 16 -39 16 -61 1 -28 -18 -85 -8 -79 15 2 8 4 51 5 97 2 71 6 86 26 107 30
32 50 32 50 1z"/>
<path d="M3970 4412 c-10 -11 -15 -39 -16 -82 0 -36 -4 -75 -8 -88 -10 -31 18
-40 60 -17 33 18 35 18 68 0 52 -28 66 -16 66 54 0 51 -3 62 -21 72 -16 8 -27
8 -46 -2 -21 -11 -29 -10 -59 6 -37 20 -39 26 -24 56 13 23 0 24 -20 1z"/>
<path d="M3218 4619 c-10 -5 -18 -16 -18 -23 0 -6 -14 -31 -31 -54 -17 -23
-29 -47 -27 -53 2 -5 32 -25 68 -42 73 -36 85 -54 43 -63 -16 -4 -36 -19 -48
-37 -12 -19 -36 -37 -62 -47 -23 -8 -58 -30 -79 -49 -31 -29 -35 -38 -30 -65
3 -17 14 -35 23 -41 9 -5 23 -17 32 -25 9 -8 25 -15 36 -15 16 0 22 -10 30
-52 6 -29 16 -58 23 -65 6 -6 12 -18 12 -26 0 -7 16 -20 35 -28 35 -14 65 -57
65 -93 0 -11 9 -25 19 -31 11 -5 23 -19 26 -30 3 -11 13 -20 20 -20 8 0 21
-12 29 -27 8 -16 34 -49 58 -74 35 -37 50 -45 73 -43 50 5 57 11 43 33 -10 17
-9 24 12 46 13 14 34 25 46 25 13 0 26 5 29 10 3 6 15 10 27 10 16 0 19 5 14
23 -3 12 -6 30 -6 40 0 11 -8 17 -24 17 -25 0 -36 10 -53 52 -10 23 -8 32 18
72 28 42 30 50 24 103 -9 68 -24 89 -77 103 -21 6 -38 15 -38 21 0 25 22 49
43 48 68 -6 72 -3 87 64 27 120 27 120 3 150 -23 29 -31 77 -13 77 11 0 -4 46
-22 68 -9 10 -15 9 -34 -9 -19 -18 -30 -21 -65 -15 -25 4 -46 2 -54 -4 -10 -8
-20 -8 -35 0 -12 6 -31 13 -43 16 -11 2 -25 10 -29 19 -5 8 -21 15 -37 15 -15
0 -36 7 -47 15 -22 17 -42 18 -66 4z"/>
<path d="M5725 4564 c-16 -13 -48 -33 -70 -43 -53 -25 -135 -103 -135 -128 0
-29 -72 -66 -112 -58 -16 4 -42 2 -58 -5 -28 -11 -28 -14 -23 -68 2 -32 6 -73
7 -92 1 -19 17 -63 34 -97 27 -53 32 -73 32 -133 0 -43 6 -82 15 -99 8 -16 17
-47 21 -70 6 -35 9 -39 24 -31 12 7 29 5 52 -4 18 -8 60 -20 93 -27 45 -10 77
-26 125 -62 35 -27 70 -51 77 -54 9 -3 13 -25 13 -64 0 -54 2 -60 28 -73 15
-8 36 -30 46 -49 18 -33 19 -34 55 -21 20 6 86 15 147 19 l111 7 31 -51 c31
-50 53 -63 68 -40 4 8 27 10 65 6 l57 -5 9 36 c10 42 35 53 62 28 16 -15 20
-15 42 2 53 42 86 52 142 46 36 -4 57 -3 61 5 11 16 33 13 64 -9 31 -22 126
-30 156 -13 14 8 17 18 13 44 -10 65 -33 104 -100 171 -37 37 -67 74 -67 83 0
8 -15 21 -33 28 -18 8 -44 30 -59 49 -30 39 -80 57 -140 50 -34 -4 -36 -5 -26
-28 8 -18 7 -29 -5 -48 -20 -30 -56 -43 -68 -25 -6 11 -12 10 -27 -4 -18 -16
-20 -16 -38 4 -35 39 -86 59 -128 49 -21 -5 -52 -6 -70 -3 -24 4 -36 -1 -55
-21 -14 -14 -30 -26 -37 -26 -20 0 -84 78 -85 105 -1 14 -2 30 -3 37 -1 6 13
19 29 28 27 15 30 21 27 59 -3 33 3 52 27 90 17 26 31 55 31 63 0 8 30 83 66
167 36 83 63 158 60 167 -6 17 -65 44 -95 44 -11 0 -35 -9 -53 -20 -20 -12
-51 -20 -79 -20 -42 0 -49 4 -98 55 -55 57 -62 60 -146 69 -43 5 -54 2 -80
-20z"/>
<path d="M1726 4481 c-27 -16 -30 -21 -30 -75 0 -49 4 -61 23 -76 20 -14 23
-23 17 -51 -4 -19 -10 -59 -14 -89 -8 -60 -17 -80 -35 -80 -7 0 -34 -12 -62
-26 -42 -21 -58 -25 -103 -20 -30 4 -69 13 -88 21 -31 13 -37 12 -78 -11 -61
-34 -98 -79 -90 -109 4 -17 -3 -33 -28 -62 -32 -35 -34 -40 -24 -73 6 -19 19
-49 28 -67 16 -28 20 -30 50 -23 18 4 50 16 71 26 32 15 41 16 59 5 11 -7 54
-16 95 -20 47 -4 78 -12 83 -21 6 -9 22 -13 43 -12 50 5 193 -92 224 -150 13
-24 23 -49 23 -56 0 -11 9 -13 34 -8 40 8 66 -1 66 -21 0 -27 33 -72 58 -78
16 -4 31 0 43 11 15 14 22 15 31 6 7 -7 15 -12 20 -12 4 0 20 39 34 88 29 91
36 102 70 102 15 0 25 10 34 33 6 17 16 40 21 49 15 29 10 48 -12 48 -19 0
-21 4 -17 38 3 20 2 46 -2 57 -11 30 7 55 40 55 15 0 41 10 57 23 15 13 43 29
61 37 34 13 34 13 27 66 -4 38 -2 61 9 82 8 16 13 38 11 48 -15 74 -15 74 -41
74 -16 0 -34 -10 -46 -25 -20 -26 -52 -33 -64 -14 -4 7 -25 10 -58 6 -46 -4
-56 -2 -91 24 -27 20 -50 29 -77 29 -30 0 -47 8 -78 36 -49 44 -51 71 -9 118
l31 35 -26 26 c-27 27 -55 32 -74 13 -8 -8 -15 -8 -26 1 -8 7 -20 10 -26 6 -6
-4 -19 0 -28 8 -25 21 -48 27 -61 14 -8 -8 -14 -8 -23 1 -15 15 -16 15 -52 -7z"/>
<path d="M460 4481 c-35 -6 -38 -13 -25 -56 5 -16 -3 -25 -39 -44 -24 -12 -49
-20 -55 -16 -6 3 -11 -1 -11 -9 0 -19 -36 -40 -56 -32 -8 3 -14 1 -14 -4 0
-12 -47 -13 -54 -2 -3 4 -26 6 -53 3 -46 -6 -48 -8 -51 -38 -2 -20 -11 -37
-22 -43 -36 -19 -50 -41 -44 -66 4 -16 1 -26 -9 -30 -22 -8 -1 -41 30 -49 24
-6 31 -33 12 -52 -7 -7 1 -15 28 -27 70 -31 88 -45 93 -72 4 -19 17 -33 45
-48 22 -11 45 -25 50 -32 15 -17 43 -25 50 -14 7 12 75 14 75 3 0 -5 11 -21
25 -37 20 -23 28 -27 37 -18 20 20 46 14 50 -10 2 -13 15 -29 31 -36 15 -7 27
-21 27 -32 0 -10 4 -21 9 -24 5 -4 12 -24 16 -45 7 -43 58 -131 75 -131 6 0
19 -20 30 -44 12 -28 27 -47 42 -51 13 -4 30 -14 39 -22 14 -12 17 -12 22 1 4
10 17 13 49 10 l43 -5 -54 50 c-49 46 -53 53 -48 85 4 26 0 42 -19 67 -13 18
-24 47 -24 64 0 16 -8 46 -19 65 -10 19 -24 53 -31 75 -7 22 -20 48 -29 58
-11 13 -15 36 -14 77 1 42 -3 60 -13 64 -18 7 -18 36 0 36 7 0 34 9 60 21 25
11 51 17 56 14 24 -15 7 34 -24 67 -19 20 -40 52 -47 72 -9 24 -22 39 -41 45
-15 6 -28 17 -28 25 0 9 -17 27 -38 40 -32 20 -42 35 -59 87 -12 35 -25 64
-29 65 -5 1 -25 -2 -44 -5z"/>
<path d="M5245 4299 c-85 -12 -138 -29 -184 -60 -49 -32 -73 -35 -110 -15 -18
10 -30 11 -42 3 -11 -7 -29 -6 -60 2 -24 7 -57 15 -74 18 -16 2 -43 11 -60 18
-43 19 -150 18 -170 -1 -22 -22 -19 -47 10 -74 28 -26 56 -96 75 -187 11 -55
11 -66 -5 -99 -18 -38 -58 -79 -86 -89 -12 -4 -18 -24 -23 -69 -6 -56 -3 -70
19 -114 14 -27 25 -53 25 -58 0 -4 23 -29 50 -56 53 -51 58 -67 35 -108 -20
-36 -19 -42 20 -94 33 -42 39 -46 80 -46 62 0 98 32 101 91 3 63 28 63 77 -1
20 -27 37 -54 37 -59 0 -14 64 -61 81 -61 43 1 79 67 72 132 -4 35 0 55 21 94
14 27 26 61 26 77 0 59 52 123 95 115 21 -4 25 -1 25 18 0 50 18 72 71 91 28
10 54 24 56 31 3 7 -2 31 -12 52 -13 30 -16 53 -12 92 6 48 3 61 -28 122 -32
62 -48 138 -47 218 1 24 -5 25 -63 17z"/>
<path d="M2818 4211 c-7 -12 -18 -21 -25 -21 -7 0 -13 -4 -13 -10 0 -5 5 -10
10 -10 16 0 12 -30 -5 -36 -8 -3 -19 -21 -25 -41 -10 -29 -9 -37 6 -54 17 -19
16 -20 -14 -31 -18 -7 -32 -18 -32 -24 0 -19 -24 -23 -51 -8 -34 19 -49 17
-49 -6 0 -21 -38 -42 -69 -39 -9 1 -24 -1 -34 -6 -10 -4 -23 -2 -31 4 -17 14
-83 -9 -103 -36 -7 -9 -32 -19 -55 -22 l-43 -6 0 -59 c0 -32 5 -60 11 -63 5
-2 26 3 46 12 45 18 68 11 68 -21 0 -16 10 -28 30 -39 35 -18 61 -13 106 21
37 29 54 30 54 6 0 -11 9 -27 20 -37 11 -10 20 -28 20 -40 0 -13 3 -36 6 -53
l6 -30 47 14 c61 18 60 19 73 -16 5 -17 19 -35 29 -41 10 -5 19 -16 19 -23 0
-10 23 -13 103 -11 101 2 128 7 157 29 8 7 32 18 53 25 34 11 41 11 58 -5 18
-16 19 -16 19 1 0 10 10 29 22 42 19 20 20 26 9 49 -6 15 -8 31 -4 35 14 14
82 -11 114 -42 29 -28 60 -36 93 -23 25 9 19 25 -21 66 -63 62 -103 108 -103
118 0 5 -8 11 -19 15 -12 3 -21 19 -25 43 -7 47 -31 82 -56 82 -26 0 -72 73
-79 125 -5 32 -11 41 -29 43 -13 2 -26 10 -29 18 -3 8 -11 14 -18 14 -6 0 -20
9 -30 20 -12 13 -25 18 -41 14 -17 -4 -39 4 -78 30 -74 49 -83 51 -98 27z"/>
<path d="M3615 4200 c-3 -5 -19 -7 -35 -3 -47 9 -40 -23 7 -36 42 -12 71 4 60
33 -7 18 -23 21 -32 6z"/>
<path d="M4485 4203 c-11 -3 -28 -12 -38 -21 -14 -13 -21 -13 -41 -3 -29 16
-66 11 -79 -11 -9 -13 -6 -21 12 -35 22 -18 22 -21 8 -53 -11 -28 -23 -38 -57
-48 -29 -9 -46 -10 -55 -2 -13 11 -72 3 -81 -11 -10 -17 -65 -9 -95 13 -16 12
-42 22 -57 23 -22 0 -28 5 -32 30 -6 36 -26 41 -75 21 -29 -13 -35 -19 -30
-36 5 -16 -3 -24 -47 -45 -52 -24 -56 -25 -97 -10 -58 20 -61 20 -61 -15 0
-16 -11 -45 -24 -65 -22 -32 -23 -40 -13 -63 14 -33 25 -42 55 -42 17 0 22 -6
22 -27 0 -16 3 -37 6 -49 5 -18 -2 -23 -54 -38 -60 -16 -103 -48 -83 -61 6 -3
11 -23 11 -44 0 -25 7 -44 20 -56 21 -19 28 -75 10 -75 -6 0 -4 -13 5 -30 8
-16 15 -39 15 -50 0 -20 34 -59 52 -60 3 0 20 14 37 31 l31 30 46 -21 c26 -11
48 -19 48 -18 17 31 62 78 75 78 11 0 39 -11 62 -25 35 -19 58 -25 111 -25 57
0 71 -4 98 -26 25 -22 37 -25 67 -21 20 4 45 15 57 25 12 11 29 22 39 25 10 4
17 17 17 31 0 19 8 27 34 36 19 6 50 8 69 5 23 -5 45 -1 65 9 31 16 49 45 34
55 -5 3 -24 38 -43 76 -18 39 -45 80 -58 93 -49 45 -22 132 39 130 36 -1 82
36 102 83 14 33 14 42 -4 114 -11 43 -26 92 -35 109 -17 33 -53 77 -62 75 -3
-1 -15 -4 -26 -6z m-291 -287 c18 4 28 -3 49 -35 15 -23 34 -41 41 -41 32 0
44 -26 33 -74 -10 -44 -12 -46 -47 -46 -20 0 -42 6 -49 13 -7 7 -37 12 -72 12
-69 0 -74 5 -85 80 -3 27 -10 61 -15 73 -14 37 -3 41 62 26 33 -8 70 -12 83
-8z"/>
<path d="M4067 3878 c3 -24 10 -51 14 -60 5 -9 9 -26 9 -37 0 -19 6 -21 60
-21 39 0 70 -6 85 -16 35 -23 58 -14 67 26 6 28 4 37 -10 45 -9 6 -33 28 -53
49 -23 24 -43 37 -52 33 -8 -3 -39 1 -69 9 -29 7 -54 14 -55 14 0 0 1 -19 4
-42z"/>
<path d="M835 4105 c-28 -35 -41 -44 -57 -39 -11 3 -40 -2 -65 -11 -35 -14
-43 -21 -37 -34 5 -9 7 -39 6 -67 -2 -37 3 -58 16 -75 11 -13 22 -37 26 -54 4
-16 18 -52 32 -81 13 -28 24 -64 24 -81 0 -18 9 -38 21 -49 17 -15 20 -27 15
-61 -5 -37 -3 -43 22 -58 38 -25 83 -75 77 -86 -4 -5 -22 -9 -41 -9 -19 0 -43
-5 -54 -12 -15 -10 -22 -9 -38 5 -24 22 -64 23 -55 2 3 -9 -2 -36 -11 -60 -13
-33 -15 -49 -7 -64 18 -33 13 -59 -24 -112 -41 -60 -43 -88 -12 -149 18 -36
27 -44 46 -42 12 2 31 -4 41 -13 11 -10 26 -15 35 -11 9 3 27 -2 41 -10 17
-12 38 -15 68 -12 24 3 51 1 60 -4 9 -5 56 -10 103 -10 103 -1 101 -3 102 121
1 78 3 86 31 118 17 18 30 41 30 50 0 8 12 42 26 75 23 49 25 62 15 84 -13 29
-7 46 14 38 8 -4 35 7 59 22 24 16 52 34 61 39 17 10 16 14 -9 60 -14 28 -26
58 -26 67 0 10 -5 18 -10 18 -18 0 -110 92 -110 109 0 9 -11 32 -24 51 -13 19
-26 53 -30 75 -6 36 -4 43 24 70 38 36 38 50 0 82 -16 13 -30 31 -30 38 0 23
-39 29 -61 9 -17 -15 -25 -16 -72 -5 -30 6 -61 9 -70 5 -12 -4 -20 1 -27 20
-5 14 -16 26 -24 26 -9 0 -18 14 -22 35 -9 49 -33 45 -79 -10z"/>
<path d="M4470 3790 c-13 -25 -10 -72 6 -77 16 -5 33 39 27 70 -6 32 -18 35
-33 7z"/>
<path d="M5350 3748 c-42 -21 -45 -26 -48 -65 -3 -43 -3 -43 -42 -43 -46 0
-80 -35 -80 -84 0 -17 -13 -58 -28 -91 -23 -49 -28 -72 -27 -124 2 -63 3 -64
36 -78 42 -16 69 -75 69 -149 0 -48 20 -107 41 -119 5 -4 9 -19 9 -35 0 -31
14 -40 66 -40 25 0 38 -6 50 -25 18 -28 20 -29 139 -54 l90 -19 33 29 c18 16
37 29 42 29 18 0 91 74 111 114 l20 38 52 -6 c29 -3 80 -2 115 2 50 7 69 15
95 39 17 17 46 37 62 44 23 11 30 21 31 44 0 35 23 82 53 109 27 24 27 26 -6
81 l-28 46 -120 -6 c-66 -3 -133 -11 -149 -17 -25 -10 -31 -9 -40 6 -22 38
-58 76 -72 76 -18 0 -28 42 -21 84 5 32 2 36 -67 89 -57 43 -91 60 -152 77
-87 24 -120 28 -146 16 -15 -7 -18 -3 -18 23 0 37 -11 39 -70 9z"/>
<path d="M1345 3739 c-22 -10 -48 -19 -57 -19 -10 0 -18 -6 -18 -14 0 -15 65
-77 99 -96 12 -6 21 -21 21 -33 0 -12 9 -37 21 -56 28 -46 22 -72 -22 -93 -19
-9 -41 -23 -48 -32 -8 -9 -24 -16 -37 -16 -27 0 -28 -1 -13 -33 9 -20 6 -33
-15 -75 -14 -28 -26 -63 -26 -76 0 -15 -13 -39 -32 -58 -33 -33 -33 -34 -33
-132 l0 -100 35 -8 c65 -16 90 -30 111 -64 16 -26 28 -34 49 -34 18 0 36 -9
47 -23 10 -12 29 -28 43 -34 14 -7 37 -23 53 -35 20 -16 44 -23 92 -26 59 -4
64 -6 55 -22 -16 -30 -12 -58 11 -65 11 -4 26 -21 34 -38 22 -52 54 -140 60
-168 4 -14 29 -48 56 -75 27 -27 49 -57 49 -69 0 -20 5 -20 158 -20 l157 0 -3
76 c-2 46 2 97 11 125 7 27 15 103 16 169 2 120 3 120 32 143 27 22 29 28 29
92 0 44 5 71 13 79 23 18 41 114 33 173 -7 52 -51 138 -71 138 -9 0 -54 40
-84 75 -7 9 -15 34 -18 56 -7 48 -33 67 -63 46 -11 -7 -32 -12 -48 -9 -22 3
-32 14 -51 54 l-23 50 -44 -7 c-33 -5 -44 -3 -44 7 0 7 -10 34 -23 59 -30 63
-158 152 -212 148 -24 -3 -41 3 -57 19 -18 16 -32 20 -58 16 -20 -3 -54 1 -79
10 -53 19 -56 19 -106 -5z"/>
<path d="M2352 3743 c-12 -5 -45 -67 -47 -89 -1 -29 -31 -65 -58 -72 -26 -7
-32 -16 -53 -82 -13 -41 -24 -97 -24 -124 0 -41 5 -56 35 -92 19 -23 44 -45
54 -49 30 -9 71 -82 83 -146 11 -66 1 -127 -33 -187 -14 -24 -17 -44 -13 -72
8 -47 -9 -93 -39 -109 -21 -11 -22 -19 -23 -136 -1 -90 -5 -136 -18 -168 -13
-36 -15 -59 -9 -123 l8 -79 174 -23 c104 -14 177 -20 182 -15 6 6 6 37 0 79
-6 39 -13 138 -17 221 l-7 151 43 13 43 13 46 -52 46 -52 99 -5 c97 -4 101 -3
153 26 29 17 55 34 58 39 3 5 -4 44 -16 87 -12 43 -22 97 -22 120 0 40 -2 44
-39 60 -40 18 -43 24 -52 101 -3 33 1 53 16 79 16 25 21 52 21 95 -1 52 3 64
24 84 20 19 24 29 18 54 -4 17 -2 36 4 44 15 18 1 56 -36 100 -30 37 -33 39
-83 34 -47 -5 -53 -3 -62 18 -6 13 -16 24 -22 24 -7 0 -17 14 -23 31 -10 26
-16 30 -35 25 -13 -4 -40 -10 -60 -13 l-38 -6 0 54 c0 42 -5 58 -20 72 -11 9
-20 24 -20 32 0 21 -8 19 -46 -10 -55 -42 -136 -25 -146 30 -3 20 -23 28 -46
18z"/>
<path d="M3259 3637 c11 -14 11 -22 1 -47 -7 -16 -16 -30 -21 -30 -5 0 -9 -8
-9 -19 0 -10 -7 -25 -16 -32 -14 -11 -18 -10 -29 5 -12 16 -18 17 -52 6 -21
-7 -45 -18 -53 -25 -8 -7 -33 -16 -55 -19 -66 -11 -74 -20 -44 -53 27 -29 43
-79 28 -89 -5 -3 -9 -25 -9 -49 0 -33 -5 -47 -19 -54 -14 -8 -19 -26 -24 -86
-3 -43 -12 -87 -21 -100 -17 -26 -20 -54 -10 -104 5 -22 18 -37 50 -56 46 -27
47 -29 35 -60 -5 -12 -4 -32 3 -50 7 -16 18 -58 26 -93 10 -51 16 -62 29 -57
34 14 117 25 178 25 61 0 63 1 58 23 -4 13 4 42 18 72 14 28 27 60 31 72 4 13
27 37 52 54 50 34 69 60 77 105 5 24 1 36 -13 49 -44 40 -11 105 52 105 29 0
32 6 43 78 6 37 11 44 35 48 42 9 71 77 40 94 -11 6 -20 21 -20 33 0 12 -9 38
-19 58 -18 34 -18 37 -3 53 14 13 14 19 4 34 -7 9 -20 29 -30 44 -14 23 -24
28 -59 28 -23 0 -45 -4 -48 -10 -3 -5 -31 -10 -61 -10 -48 0 -56 3 -65 24 -7
14 -22 27 -34 30 -13 3 -31 9 -42 13 -16 6 -16 5 -4 -10z"/>
<path d="M4580 3490 c-18 -33 -60 -48 -117 -43 -36 4 -53 2 -53 -6 0 -6 11
-11 25 -11 28 0 32 -12 10 -30 -14 -12 -13 -17 12 -42 25 -26 28 -37 28 -96
l0 -67 32 -3 c30 -3 31 -5 23 -28 -13 -33 -12 -113 0 -192 l11 -64 -35 -33
c-26 -24 -47 -34 -85 -39 -48 -6 -50 -8 -57 -44 -4 -20 -11 -42 -15 -48 -16
-20 -11 -58 16 -129 31 -78 46 -195 49 -357 0 -58 4 -109 8 -113 10 -10 159
-26 171 -18 6 4 32 5 58 4 37 -1 60 5 102 29 29 16 60 30 69 30 47 0 105 50
177 152 24 33 50 54 88 72 29 14 58 26 63 26 6 0 22 14 37 30 14 17 35 30 45
30 33 0 16 44 -38 98 -19 18 -37 44 -40 57 -3 14 -10 25 -15 25 -14 0 -10 43
6 64 8 11 15 28 15 38 0 28 48 116 70 130 27 17 25 60 -5 108 -20 32 -24 48
-19 79 10 60 -20 127 -65 151 -36 18 -36 18 -64 -6 -16 -13 -33 -24 -40 -24
-24 0 -77 40 -101 77 -14 21 -39 54 -56 73 -29 31 -31 33 -26 11 6 -29 -14
-79 -42 -104 -26 -23 -92 -33 -121 -18 -53 29 -102 137 -71 156 14 9 12 45 -2
43 -8 -2 -14 9 -16 25 -4 32 -17 35 -32 7z"/>
<path d="M4378 3413 c-2 -15 -12 -32 -23 -38 -11 -6 -31 -18 -45 -26 -14 -9
-42 -19 -62 -22 -31 -5 -44 -1 -69 21 -26 21 -44 27 -98 30 -62 3 -100 15
-144 45 -19 13 -26 7 -75 -60 l-18 -25 -43 22 -42 23 -27 -25 c-15 -14 -35
-30 -45 -35 -10 -5 -25 -25 -35 -44 -12 -24 -25 -35 -43 -37 -24 -3 -27 -8
-32 -55 -7 -57 -25 -77 -69 -77 -50 0 -58 -52 -14 -89 10 -9 14 -22 10 -37 -6
-22 -3 -24 30 -24 36 0 36 0 36 -44 0 -26 6 -51 15 -59 8 -9 54 -19 117 -26
173 -20 164 -16 192 -68 14 -25 26 -52 26 -59 0 -7 11 -21 25 -30 30 -20 112
-11 160 17 53 32 144 59 175 52 42 -8 78 18 82 58 3 37 16 46 78 54 34 5 51
14 69 36 23 29 23 32 11 110 -7 44 -10 99 -7 122 5 37 3 44 -16 52 -19 9 -23
20 -27 82 -4 57 -10 76 -29 97 -13 14 -21 32 -18 40 4 9 -4 21 -18 30 -23 15
-24 15 -27 -11z"/>
<path d="M3482 2916 c-6 -14 -31 -36 -55 -50 -33 -20 -49 -38 -66 -78 -13 -29
-27 -61 -33 -71 -5 -10 -6 -33 -2 -52 l6 -33 -94 -1 c-105 0 -169 -18 -248
-71 -43 -29 -49 -30 -157 -30 l-112 0 -42 50 c-42 49 -67 60 -98 41 -16 -11
-17 -174 0 -321 14 -126 11 -119 56 -107 29 7 66 5 164 -12 70 -11 149 -21
176 -21 52 0 68 -11 106 -72 14 -23 32 -30 134 -53 81 -19 140 -39 188 -65
l70 -39 87 18 87 18 3 -31 c3 -30 5 -31 58 -38 40 -5 57 -3 62 6 9 16 173 101
288 150 60 25 122 42 212 56 70 11 131 20 134 20 4 0 4 81 1 181 -6 167 -9
187 -38 267 -17 48 -33 101 -36 117 -4 28 -8 30 -50 32 -45 2 -136 -26 -179
-53 -11 -8 -44 -18 -73 -24 -73 -14 -99 2 -140 83 l-33 65 -71 6 c-203 19
-238 34 -230 100 3 35 2 36 -30 36 -26 0 -36 -6 -45 -24z"/>
</g>
</svg>
